<?xml version="1.0" encoding="UTF-8" standalone="no"?>
<!-- Created with Inkscape (http://www.inkscape.org/) -->

<svg
   xmlns:dc="http://purl.org/dc/elements/1.1/"
   xmlns:cc="http://creativecommons.org/ns#"
   xmlns:rdf="http://www.w3.org/1999/02/22-rdf-syntax-ns#"
   xmlns:svg="http://www.w3.org/2000/svg"
   xmlns="http://www.w3.org/2000/svg"
   xmlns:sodipodi="http://sodipodi.sourceforge.net/DTD/sodipodi-0.dtd"
   xmlns:inkscape="http://www.inkscape.org/namespaces/inkscape"
   width="160mm"
   height="146mm"
   viewBox="0 0 160 146"
   version="1.1"
   id="svg8"
   inkscape:version="0.92.4 5da689c313, 2019-01-14"
   sodipodi:docname="drawing.svg">
  <defs
     id="defs2" />
  <sodipodi:namedview
     id="base"
     pagecolor="#ffffff"
     bordercolor="#666666"
     borderopacity="1.0"
     inkscape:pageopacity="0.0"
     inkscape:pageshadow="2"
     inkscape:zoom="1"
     inkscape:cx="334.71429"
     inkscape:cy="268.50118"
     inkscape:document-units="mm"
     inkscape:current-layer="layer1"
     showgrid="false"
     inkscape:object-nodes="false"
     inkscape:snap-nodes="true"
     showguides="true"
     inkscape:guide-bbox="true"
     inkscape:window-width="1920"
     inkscape:window-height="1018"
     inkscape:window-x="0"
     inkscape:window-y="25"
     inkscape:window-maximized="1" />
  <metadata
     id="metadata5">
    <rdf:RDF>
      <cc:Work
         rdf:about="">
        <dc:format>image/svg+xml</dc:format>
        <dc:type
           rdf:resource="http://purl.org/dc/dcmitype/StillImage" />
        <dc:title></dc:title>
      </cc:Work>
    </rdf:RDF>
  </metadata>
  <g
     inkscape:label="Layer 1"
     inkscape:groupmode="layer"
     id="layer1"
     transform="translate(0,-151)">
    <path
       style="opacity:1;fill:#000080;stroke:none;stroke-width:0.26458332px;stroke-linecap:butt;stroke-linejoin:miter;stroke-opacity:1"
       d="m 158.19421,241.80293 c -39.43204,22.76611 -39.43204,22.76611 -39.43204,22.76611 l 0.8295,-42.44611 z"
       id="path4579"
       inkscape:connector-curvature="0" />
    <path
       style="opacity:1;fill:#000080;stroke:#000000;stroke-width:0.26458332px;stroke-linecap:butt;stroke-linejoin:miter;stroke-opacity:1"
       d="M 2.6724397,222.81058 C 47.552125,196.89928 47.552125,196.89928 47.552125,196.89928 L 45.772916,243.2896 2.6724397,222.81058"
       id="path4577"
       inkscape:connector-curvature="0" />
    <path
       style="color:#000000;font-style:normal;font-variant:normal;font-weight:normal;font-stretch:normal;font-size:medium;line-height:normal;font-family:sans-serif;font-variant-ligatures:normal;font-variant-position:normal;font-variant-caps:normal;font-variant-numeric:normal;font-variant-alternates:normal;font-feature-settings:normal;text-indent:0;text-align:start;text-decoration:none;text-decoration-line:none;text-decoration-style:solid;text-decoration-color:#000000;letter-spacing:normal;word-spacing:normal;text-transform:none;writing-mode:lr-tb;direction:ltr;text-orientation:mixed;dominant-baseline:auto;baseline-shift:baseline;text-anchor:start;white-space:normal;shape-padding:0;clip-rule:nonzero;display:inline;overflow:visible;visibility:visible;opacity:1;isolation:auto;mix-blend-mode:normal;color-interpolation:sRGB;color-interpolation-filters:linearRGB;solid-color:#000000;solid-opacity:1;vector-effect:none;fill:#000080;fill-opacity:1;fill-rule:nonzero;stroke:none;stroke-width:10;stroke-linecap:butt;stroke-linejoin:miter;stroke-miterlimit:4;stroke-dasharray:none;stroke-dashoffset:0;stroke-opacity:1;color-rendering:auto;image-rendering:auto;shape-rendering:auto;text-rendering:auto;enable-background:accumulate"
       d="m 80.433327,151.53391 -2.5001,1.44333 -2.50011,1.44332 -52.924413,30.55576 v 53.02363 l -5.29e-4,0.0103 v 0.25218 c -1.19e-4,31.88481 26.040297,57.92527 57.925152,57.92513 31.884843,1.5e-4 57.925293,-26.0403 57.925153,-57.92514 v -53.28615 z"
       id="path4557"
       inkscape:connector-curvature="0" />
    <path
       style="color:#000000;font-style:normal;font-variant:normal;font-weight:normal;font-stretch:normal;font-size:medium;line-height:normal;font-family:sans-serif;font-variant-ligatures:normal;font-variant-position:normal;font-variant-caps:normal;font-variant-numeric:normal;font-variant-alternates:normal;font-feature-settings:normal;text-indent:0;text-align:start;text-decoration:none;text-decoration-line:none;text-decoration-style:solid;text-decoration-color:#000000;letter-spacing:normal;word-spacing:normal;text-transform:none;writing-mode:lr-tb;direction:ltr;text-orientation:mixed;dominant-baseline:auto;baseline-shift:baseline;text-anchor:start;white-space:normal;shape-padding:0;clip-rule:nonzero;display:inline;overflow:visible;visibility:visible;opacity:1;isolation:auto;mix-blend-mode:normal;color-interpolation:sRGB;color-interpolation-filters:linearRGB;solid-color:#000000;solid-opacity:1;vector-effect:none;fill:#ffffff;fill-opacity:1;fill-rule:nonzero;stroke:none;stroke-width:10;stroke-linecap:butt;stroke-linejoin:miter;stroke-miterlimit:4;stroke-dasharray:none;stroke-dashoffset:0;stroke-opacity:1;color-rendering:auto;image-rendering:auto;shape-rendering:auto;text-rendering:auto;enable-background:accumulate"
       d="m 80.433327,157.3072 -2.5001,1.44333 -50.424313,29.11243 v 50.26153 l -5.3e-4,0.0103 v 0.12764 c -1.05e-4,29.17033 23.754583,52.92505 52.924943,52.92492 29.170353,1.4e-4 52.925073,-23.75458 52.924943,-52.92493 v -50.39946 z"
       id="path4548"
       inkscape:connector-curvature="0" />
    <path
       style="opacity:1;fill:#000080;fill-opacity:0.69444442;stroke-width:0.26312134"
       d="m 80.433107,163.42091 -47.659401,27.51622 v 47.24005 l -5.26e-4,0.0103 c -1.08e-4,26.32189 21.338032,47.66001 47.659927,47.6599 26.321883,1.1e-4 47.660033,-21.33801 47.659913,-47.65991 -6e-5,-4.30867 -0.58439,-8.59743 -1.73701,-12.74905 1.15262,4.15162 1.73695,8.44038 1.73701,12.74905 v -47.25033 z"
       id="path4540"
       inkscape:connector-curvature="0"
       sodipodi:nodetypes="cccccccccc" />
    <path
       style="opacity:1;stroke-width:0.24931397"
       d="m 80.674847,231.60014 c -0.1679,0.4698 -0.32893,0.94094 -0.48304,1.41323 0.15411,-0.47229 0.31514,-0.94343 0.48304,-1.41323 z"
       id="path4536"
       inkscape:connector-curvature="0"
       sodipodi:nodetypes="ccc" />
    <path
       style="opacity:1;stroke-width:0.24931397"
       d="m 80.548727,231.52276 c -0.0856,0.52291 -0.16256,1.04565 -0.23081,1.568 0.0682,-0.52234 0.14519,-1.04509 0.23081,-1.568 z"
       id="path4531"
       inkscape:connector-curvature="0"
       sodipodi:nodetypes="ccc" />
    <path
       style="color:#000000;font-style:normal;font-variant:normal;font-weight:normal;font-stretch:normal;font-size:medium;line-height:normal;font-family:sans-serif;font-variant-ligatures:normal;font-variant-position:normal;font-variant-caps:normal;font-variant-numeric:normal;font-variant-alternates:normal;font-feature-settings:normal;text-indent:0;text-align:start;text-decoration:none;text-decoration-line:none;text-decoration-style:solid;text-decoration-color:#000000;letter-spacing:normal;word-spacing:normal;text-transform:none;writing-mode:lr-tb;direction:ltr;text-orientation:mixed;dominant-baseline:auto;baseline-shift:baseline;text-anchor:start;white-space:normal;shape-padding:0;clip-rule:nonzero;display:inline;overflow:visible;visibility:visible;opacity:1;isolation:auto;mix-blend-mode:normal;color-interpolation:sRGB;color-interpolation-filters:linearRGB;solid-color:#000000;solid-opacity:1;vector-effect:none;fill:#000080;fill-opacity:1;fill-rule:nonzero;stroke:none;stroke-width:9.42289066;stroke-linecap:butt;stroke-linejoin:miter;stroke-miterlimit:4;stroke-dasharray:none;stroke-dashoffset:0;stroke-opacity:1;color-rendering:auto;image-rendering:auto;shape-rendering:auto;text-rendering:auto;enable-background:accumulate"
       d="m 2.6724407,222.81058 v 4.71165 42.85571 l 155.5217693,-28.575 v -47.56736 z"
       id="path4572"
       inkscape:connector-curvature="0" />
    <rect
       style="opacity:1;fill:#ffffff;stroke:none;stroke-width:9.50143051;stroke-miterlimit:4;stroke-dasharray:none"
       id="rect4564"
       width="148.54361"
       height="38.145042"
       x="7.5079317"
       y="228.01276"
       transform="matrix(0.98353618,-0.18071134,0,1,0,0)" />
    <text
       xml:space="preserve"
       style="font-style:normal;font-variant:normal;font-weight:500;font-stretch:semi-expanded;font-size:40.33003235px;line-height:1.25;font-family:Jamrul;-inkscape-font-specification:'Jamrul, Medium Semi-Expanded';font-variant-ligatures:normal;font-variant-caps:normal;font-variant-numeric:normal;font-feature-settings:normal;text-align:start;letter-spacing:0px;word-spacing:0px;writing-mode:lr-tb;text-anchor:start;opacity:1;fill:#000080;fill-opacity:1;stroke:none;stroke-width:1.00825071"
       x="13.08532"
       y="261.32288"
       id="text4562"
       transform="skewY(-10.411196)"><tspan
         sodipodi:role="line"
         id="tspan4560"
         x="13.08532"
         y="261.32288"
         style="font-style:normal;font-variant:normal;font-weight:500;font-stretch:semi-expanded;font-size:40.33003235px;font-family:Jamrul;-inkscape-font-specification:'Jamrul, Medium Semi-Expanded';font-variant-ligatures:normal;font-variant-caps:normal;font-variant-numeric:normal;font-feature-settings:normal;text-align:start;writing-mode:lr-tb;text-anchor:start;fill:#000080;stroke-width:1.00825071">Webits</tspan></text>
    <g
       aria-label="FUN CODING"
       style="font-style:normal;font-weight:normal;font-size:7.78479624px;line-height:1.25;font-family:sans-serif;letter-spacing:1.19062507px;word-spacing:0px;opacity:1;fill:#ffffff;fill-opacity:1;stroke:none;stroke-width:0.19461991"
       id="text4585"
       transform="translate(-33.602083,138.64167)">
      <path
         d="m 90.531915,128.10508 2.597368,1.97242 -0.390805,0.51463 -1.985867,-1.50805 -1.011496,1.33198 1.792123,1.36093 -0.390805,0.51463 -1.792124,-1.36093 -1.639084,2.15842 -0.611502,-0.46437 z"
         style="letter-spacing:1.19062507px;word-spacing:0px;fill:#ffffff;stroke-width:0.19461991"
         id="path4592"
         inkscape:connector-curvature="0" />
      <path
         d="m 94.369056,130.91883 0.676307,0.37152 -1.659977,3.02173 q -0.439245,0.79958 -0.343398,1.31195 0.09768,0.50904 0.747331,0.86593 0.646324,0.35505 1.128339,0.16446 0.483846,-0.19392 0.92309,-0.99349 l 1.659978,-3.02173 0.676307,0.37153 -1.705732,3.10501 q -0.534414,0.97282 -1.290188,1.20385 -0.752443,0.23285 -1.691944,-0.28326 -0.942833,-0.51794 -1.153212,-1.27972 -0.207047,-0.75995 0.327367,-1.73277 z"
         style="letter-spacing:1.19062507px;word-spacing:0px;fill:#ffffff;stroke-width:0.19461991"
         id="path4594"
         inkscape:connector-curvature="0" />
      <path
         d="m 99.739597,133.70719 0.975383,0.34295 0.79911,5.31355 1.5748,-4.47887 0.70285,0.24713 -1.88245,5.35384 -0.97538,-0.34295 -0.79911,-5.31355 -1.574804,4.47887 -0.702849,-0.24713 z"
         style="letter-spacing:1.19062507px;word-spacing:0px;fill:#ffffff;stroke-width:0.19461991"
         id="path4596"
         inkscape:connector-curvature="0" />
      <path
         d="m 112.87016,136.99413 -0.0738,0.80627 q -0.35317,-0.39497 -0.77597,-0.6131 -0.41901,-0.21779 -0.9111,-0.26286 -0.96905,-0.0888 -1.53829,0.45837 -0.56889,0.54335 -0.67153,1.6638 -0.10229,1.11667 0.35807,1.75813 0.46071,0.63766 1.42976,0.72643 0.49209,0.0451 0.9437,-0.093 0.45539,-0.13768 0.87443,-0.46192 l -0.0732,0.7987 q -0.42621,0.23579 -0.88915,0.3308 -0.45915,0.0953 -0.95881,0.0496 -1.28322,-0.11754 -1.94958,-0.96872 -0.66602,-0.85496 -0.54154,-2.21389 0.12483,-1.36272 0.93475,-2.07867 0.81026,-0.71973 2.09348,-0.60218 0.50724,0.0465 0.94142,0.22365 0.43832,0.17375 0.80737,0.47857 z"
         style="letter-spacing:1.19062507px;word-spacing:0px;fill:#ffffff;stroke-width:0.19461991"
         id="path4598"
         inkscape:connector-curvature="0" />
      <path
         d="m 116.71332,136.92842 q -0.83412,0.0597 -1.28247,0.71684 -0.44456,0.65684 -0.36771,1.72982 0.0766,1.06919 0.61022,1.65596 0.53743,0.58649 1.37155,0.52674 0.83412,-0.0597 1.27489,-0.7163 0.44456,-0.65683 0.36798,-1.72602 -0.0769,-1.07298 -0.61049,-1.65975 -0.52985,-0.58704 -1.36397,-0.52729 z m -0.0445,-0.6218 q 1.19051,-0.0853 1.96061,0.66367 0.76982,0.74515 0.86596,2.08732 0.0959,1.33839 -0.55963,2.18944 -0.65577,0.84726 -1.84628,0.93253 -1.19431,0.0856 -1.96793,-0.65933 -0.76982,-0.74515 -0.86596,-2.08733 -0.0961,-1.34217 0.55963,-2.18943 0.65929,-0.85133 1.8536,-0.93687 z"
         style="letter-spacing:1.19062507px;word-spacing:0px;fill:#ffffff;stroke-width:0.19461991"
         id="path4600"
         inkscape:connector-curvature="0" />
      <path
         d="m 121.60727,136.39468 1.05195,4.28595 0.90075,-0.22108 q 1.1407,-0.27997 1.54175,-0.92637 0.40474,-0.6473 0.13111,-1.76216 -0.27182,-1.10748 -0.92936,-1.49014 -0.65475,-0.38726 -1.79545,-0.10728 z m -0.89611,-0.42978 1.53201,-0.37602 q 1.60216,-0.39323 2.51555,0.091 0.91249,0.48055 1.26042,1.89813 0.34974,1.42496 -0.23935,2.27797 -0.58908,0.85302 -2.18386,1.24445 l -1.53201,0.37601 z"
         style="letter-spacing:1.19062507px;word-spacing:0px;fill:#ffffff;stroke-width:0.19461991"
         id="path4602"
         inkscape:connector-curvature="0" />
      <path
         d="m 126.93045,134.1909 0.71707,-0.27456 2.02933,5.29991 -0.71707,0.27457 z"
         style="letter-spacing:1.19062507px;word-spacing:0px;fill:#ffffff;stroke-width:0.19461991"
         id="path4604"
         inkscape:connector-curvature="0" />
      <path
         d="m 129.52964,133.17895 0.91255,-0.48605 4.45288,3.00738 -2.2319,-4.19034 0.65757,-0.35024 2.66791,5.00895 -0.91254,0.48605 -4.45288,-3.00738 2.2319,4.19034 -0.65758,0.35024 z"
         style="letter-spacing:1.19062507px;word-spacing:0px;fill:#ffffff;stroke-width:0.19461991"
         id="path4606"
         inkscape:connector-curvature="0" />
      <path
         d="m 140.85091,131.69102 -0.93168,-1.2064 -0.99279,0.76672 -0.38568,-0.4994 1.59448,-1.23139 1.48929,1.92841 q -0.15915,0.52154 -0.48344,0.9785 -0.32661,0.45395 -0.80796,0.82569 -1.05296,0.81319 -2.1226,0.65949 -1.06896,-0.15902 -1.91699,-1.25711 -0.85036,-1.10109 -0.73167,-2.17253 0.11939,-1.07676 1.17234,-1.88994 0.43924,-0.33921 0.91699,-0.53527 0.48076,-0.19838 0.97733,-0.24569 l 0.49953,0.64682 q -0.55767,-0.0256 -1.04826,0.12275 -0.49059,0.14835 -0.90876,0.4713 -0.82432,0.6366 -0.88401,1.41752 -0.0567,0.7786 0.64731,1.69016 0.70166,0.90855 1.46929,1.05054 0.77065,0.13967 1.59496,-0.49694 0.32191,-0.2486 0.5328,-0.49791 0.20856,-0.25233 0.31952,-0.52532 z"
         style="letter-spacing:1.19062507px;word-spacing:0px;fill:#ffffff;stroke-width:0.19461991"
         id="path4608"
         inkscape:connector-curvature="0" />
    </g>
    <path
       sodipodi:type="star"
       style="opacity:1;fill:#ffffff;stroke:none;stroke-width:10;stroke-miterlimit:4;stroke-dasharray:none"
       id="path4613"
       sodipodi:sides="5"
       sodipodi:cx="-53.710415"
       sodipodi:cy="30.300001"
       sodipodi:r1="30.509798"
       sodipodi:r2="15.254898"
       sodipodi:arg1="0.78539816"
       sodipodi:arg2="1.4137167"
       inkscape:flatsided="false"
       inkscape:rounded="0"
       inkscape:randomized="0"
       d="m -32.13673,51.873686 -19.187293,-6.5066 -16.23755,12.117344 0.258944,-20.25885 -16.541958,-11.698363 19.34733,-6.014058 6.014058,-19.34732965 11.698363,16.54195765 20.25885,-0.258944 -12.117344,16.23755 z"
       inkscape:transform-center-x="0.010466132"
       inkscape:transform-center-y="-0.66271752"
       transform="matrix(0.228217,0.03502255,-0.03502255,0.228217,93.762377,260.74531)" />
    <path
       id="path4632"
       d="m 84.313657,187.72709 q 0,-1.60679 -1.13688,-2.74367 -1.13688,-1.13688 -2.74367,-1.13688 -1.6068,0 -2.74368,1.13688 -1.13688,1.13688 -1.13688,2.74367 0,1.6068 1.13688,2.74368 1.13688,1.13688 2.74368,1.13688 1.60679,0 2.74367,-1.13688 1.13688,-1.13688 1.13688,-2.74368 z m 7.76111,-1.65226 v 3.36516 q 0,0.18191 -0.12126,0.34865 -0.12127,0.16674 -0.30317,0.19706 l -2.80431,0.42443 q -0.28801,0.81856 -0.59118,1.37942 0.53055,0.75792 1.62195,2.09186 0.15159,0.1819 0.15159,0.37896 0,0.19706 -0.13643,0.34865 -0.40928,0.56086 -1.50068,1.63711 -1.09141,1.07624 -1.4249,1.07624 -0.1819,0 -0.39411,-0.13642 l -2.09187,-1.63711 q -0.66697,0.34864 -1.37941,0.57602 -0.24254,2.06154 -0.4396,2.81946 -0.10611,0.42444 -0.5457,0.42444 h -3.36517 q -0.21222,0 -0.37138,-0.12885 -0.15916,-0.12884 -0.17432,-0.3259 l -0.42444,-2.78915 q -0.74276,-0.24254 -1.36425,-0.56086 l -2.13734,1.62195 q -0.15159,0.13642 -0.37896,0.13642 -0.21222,0 -0.37896,-0.16674 -1.90996,-1.72806 -2.50113,-2.54661 -0.10611,-0.15159 -0.10611,-0.34865 0,-0.1819 0.12127,-0.34864 0.22736,-0.31833 0.77307,-1.00804 0.5457,-0.6897 0.81855,-1.06866 -0.40928,-0.75793 -0.62149,-1.50069 l -2.773997,-0.40928 q -0.19706,-0.0303 -0.31832,-0.18948 -0.12127,-0.15916 -0.12127,-0.35622 v -3.36517 q 0,-0.1819 0.12127,-0.34864 0.12126,-0.16674 0.28801,-0.19706 l 2.819457,-0.42444 q 0.21222,-0.69728 0.59118,-1.39457 -0.60633,-0.86403 -1.62194,-2.09186 -0.15158,-0.1819 -0.15158,-0.3638 0,-0.15159 0.13642,-0.34865 0.39411,-0.5457 1.4931,-1.62953 1.09898,-1.08383 1.43247,-1.08383 0.19706,0 0.39412,0.15159 l 2.09186,1.62195 q 0.66697,-0.34865 1.37941,-0.57602 0.24254,-2.06155 0.4396,-2.81947 0.10611,-0.42443 0.5457,-0.42443 h 3.36517 q 0.21222,0 0.37138,0.12884 0.15917,0.12885 0.17432,0.32591 l 0.42444,2.78915 q 0.74276,0.24253 1.36426,0.56086 l 2.15249,-1.62195 q 0.13643,-0.13643 0.3638,-0.13643 0.19706,0 0.37897,0.15159 1.95543,1.80385 2.50114,2.57693 0.1061,0.12127 0.1061,0.33349 0,0.1819 -0.12126,0.34864 -0.22738,0.31832 -0.77308,1.00803 -0.54571,0.68971 -0.81856,1.06867 0.39412,0.75792 0.6215,1.48553 l 2.77399,0.42443 q 0.19706,0.0303 0.31833,0.18948 0.12126,0.15917 0.12126,0.35623 z"
       inkscape:connector-curvature="0"
       style="fill:#ffffff;stroke-width:0.01515842" />
  </g>
</svg>
